<svg width="26" height="27" viewBox="0 0 26 27" fill="none" xmlns="http://www.w3.org/2000/svg">
<path d="M24.375 13.2033C24.375 13.1474 24.375 13.0839 24.3725 13.0103C24.3699 12.8047 24.3648 12.5736 24.3598 12.3273C24.3395 11.6189 24.3039 10.913 24.248 10.2478C24.1719 9.33121 24.0602 8.56696 23.9078 7.99313C23.747 7.39429 23.4319 6.84813 22.9939 6.40925C22.5559 5.97037 22.0104 5.65413 21.4119 5.49215C20.6934 5.29918 19.2867 5.17985 17.3062 5.10621C16.3643 5.07067 15.3562 5.04781 14.3482 5.03512C13.9953 5.03004 13.6678 5.0275 13.3732 5.02496H12.6268C12.3322 5.0275 12.0047 5.03004 11.6518 5.03512C10.6438 5.04781 9.63574 5.07067 8.69375 5.10621C6.71328 5.18239 5.3041 5.30172 4.58809 5.49215C3.98938 5.65374 3.44365 5.96984 3.0056 6.40878C2.56755 6.84773 2.25255 7.39409 2.09219 7.99313C1.9373 8.56696 1.82812 9.33121 1.75195 10.2478C1.69609 10.913 1.66055 11.6189 1.64023 12.3273C1.63262 12.5736 1.63008 12.8047 1.62754 13.0103C1.62754 13.0839 1.625 13.1474 1.625 13.2033V13.3455C1.625 13.4013 1.625 13.4648 1.62754 13.5384C1.63008 13.7441 1.63516 13.9752 1.64023 14.2214C1.66055 14.9298 1.69609 15.6357 1.75195 16.3009C1.82812 17.2175 1.93984 17.9818 2.09219 18.5556C2.41719 19.7718 3.37187 20.7316 4.58809 21.0566C5.3041 21.2496 6.71328 21.3689 8.69375 21.4425C9.63574 21.4781 10.6438 21.5009 11.6518 21.5136C12.0047 21.5187 12.3322 21.5213 12.6268 21.5238H13.3732C13.6678 21.5213 13.9953 21.5187 14.3482 21.5136C15.3562 21.5009 16.3643 21.4781 17.3062 21.4425C19.2867 21.3664 20.6959 21.247 21.4119 21.0566C22.6281 20.7316 23.5828 19.7744 23.9078 18.5556C24.0627 17.9818 24.1719 17.2175 24.248 16.3009C24.3039 15.6357 24.3395 14.9298 24.3598 14.2214C24.3674 13.9752 24.3699 13.7441 24.3725 13.5384C24.3725 13.4648 24.375 13.4013 24.375 13.3455V13.2033ZM22.5469 13.3353C22.5469 13.3886 22.5469 13.447 22.5443 13.5156C22.5418 13.7136 22.5367 13.932 22.5316 14.1681C22.5139 14.8435 22.4783 15.5189 22.425 16.1461C22.3564 16.9636 22.26 17.634 22.1406 18.0834C21.9832 18.6699 21.5211 19.1345 20.9371 19.2894C20.4039 19.4316 19.0607 19.5459 17.2352 19.6144C16.3109 19.65 15.3156 19.6728 14.3229 19.6855C13.975 19.6906 13.6525 19.6931 13.3631 19.6931H12.6369L11.6771 19.6855C10.6844 19.6728 9.6916 19.65 8.76484 19.6144C6.93926 19.5433 5.59355 19.4316 5.06289 19.2894C4.47891 19.132 4.0168 18.6699 3.85938 18.0834C3.74004 17.634 3.64355 16.9636 3.575 16.1461C3.52168 15.5189 3.48867 14.8435 3.46836 14.1681C3.46074 13.932 3.4582 13.7111 3.45566 13.5156C3.45566 13.447 3.45312 13.3861 3.45312 13.3353V13.2134C3.45312 13.1601 3.45313 13.1017 3.45566 13.0332C3.4582 12.8351 3.46328 12.6168 3.46836 12.3806C3.48613 11.7052 3.52168 11.0298 3.575 10.4027C3.64355 9.58512 3.74004 8.91481 3.85938 8.46539C4.0168 7.87887 4.47891 7.41422 5.06289 7.25934C5.59609 7.11715 6.93926 7.00289 8.76484 6.93434C9.68906 6.89879 10.6844 6.87594 11.6771 6.86324C12.025 6.85817 12.3475 6.85563 12.6369 6.85563H13.3631L14.3229 6.86324C15.3156 6.87594 16.3084 6.89879 17.2352 6.93434C19.0607 7.00543 20.4064 7.11715 20.9371 7.25934C21.5211 7.41676 21.9832 7.87887 22.1406 8.46539C22.26 8.91481 22.3564 9.58512 22.425 10.4027C22.4783 11.0298 22.5113 11.7052 22.5316 12.3806C22.5393 12.6168 22.5418 12.8377 22.5443 13.0332C22.5443 13.1017 22.5469 13.1627 22.5469 13.2134V13.3353ZM10.7402 16.6767L16.6309 13.249L10.7402 9.87203V16.6767Z" fill="white"/>
</svg>
